# Blender v2.78 (sub 0) OBJ File: ''
# www.blender.org
o Cone
v 0.000000 -0.404456 -1.000000
v 0.000000 1.595544 0.000000
v 0.195090 -0.404456 -0.980785
v 0.382683 -0.404456 -0.923880
v 0.555570 -0.404456 -0.831470
v 0.707107 -0.404456 -0.707107
v 0.831470 -0.404456 -0.555570
v 0.923880 -0.404456 -0.382683
v 0.980785 -0.404456 -0.195090
v 1.000000 -0.404456 -0.000000
v 0.980785 -0.404456 0.195090
v 0.923880 -0.404456 0.382683
v 0.831470 -0.404456 0.555570
v 0.707107 -0.404456 0.707107
v 0.555570 -0.404456 0.831470
v 0.382683 -0.404456 0.923880
v 0.195090 -0.404456 0.980785
v -0.000000 -0.404456 1.000000
v -0.195091 -0.404456 0.980785
v -0.382684 -0.404456 0.923879
v -0.555571 -0.404456 0.831469
v -0.707107 -0.404456 0.707106
v -0.831470 -0.404456 0.555570
v -0.923880 -0.404456 0.382683
v -0.980785 -0.404456 0.195089
v -1.000000 -0.404456 -0.000001
v -0.980785 -0.404456 -0.195091
v -0.923879 -0.404456 -0.382684
v -0.831469 -0.404456 -0.555571
v -0.707106 -0.404456 -0.707108
v -0.555569 -0.404456 -0.831470
v -0.382682 -0.404456 -0.923880
v -0.195089 -0.404456 -0.980786
vt 0.2703 0.5996
vt 0.2998 0.2998
vt 0.3294 0.5996
vt 0.3873 0.5881
vt 0.4418 0.5655
vt 0.4909 0.5327
vt 0.5327 0.4909
vt 0.5655 0.4418
vt 0.5881 0.3873
vt 0.5996 0.3294
vt 0.5996 0.2703
vt 0.5881 0.2124
vt 0.5655 0.1579
vt 0.5327 0.1088
vt 0.4909 0.0670
vt 0.4418 0.0342
vt 0.3873 0.0116
vt 0.3294 0.0001
vt 0.2703 0.0001
vt 0.2124 0.0116
vt 0.1579 0.0342
vt 0.1088 0.0670
vt 0.0670 0.1088
vt 0.0342 0.1579
vt 0.0116 0.2124
vt 0.0001 0.2703
vt 0.0001 0.3294
vt 0.0116 0.3873
vt 0.0342 0.4418
vt 0.0670 0.4909
vt 0.1088 0.5327
vt 0.1579 0.5655
vt 0.2124 0.5881
vt 0.2199 0.9999
vt 0.0001 0.8195
vt 0.4002 0.7801
vt 0.1805 0.5998
vt 0.2199 0.5998
vt 0.2585 0.6075
vt 0.2949 0.6225
vt 0.3277 0.6444
vt 0.3556 0.6723
vt 0.3775 0.7051
vt 0.3925 0.7415
vt 0.4002 0.8195
vt 0.3925 0.8582
vt 0.3775 0.8946
vt 0.3556 0.9274
vt 0.3277 0.9552
vt 0.2949 0.9771
vt 0.2585 0.9922
vt 0.1805 0.9999
vt 0.1418 0.9922
vt 0.1054 0.9771
vt 0.0726 0.9552
vt 0.0448 0.9274
vt 0.0229 0.8946
vt 0.0078 0.8582
vt 0.0001 0.7801
vt 0.0078 0.7415
vt 0.0229 0.7051
vt 0.0448 0.6723
vt 0.0726 0.6444
vt 0.1054 0.6225
vt 0.1418 0.6075
vn 0.0878 0.4455 -0.8910
vn 0.2599 0.4455 -0.8567
vn 0.4220 0.4455 -0.7896
vn 0.5680 0.4455 -0.6921
vn 0.6921 0.4455 -0.5680
vn 0.7896 0.4455 -0.4220
vn 0.8567 0.4455 -0.2599
vn 0.8910 0.4455 -0.0878
vn 0.8910 0.4455 0.0878
vn 0.8567 0.4455 0.2599
vn 0.7896 0.4455 0.4220
vn 0.6921 0.4455 0.5680
vn 0.5680 0.4455 0.6921
vn 0.4220 0.4455 0.7896
vn 0.2599 0.4455 0.8567
vn 0.0878 0.4455 0.8910
vn -0.0878 0.4455 0.8910
vn -0.2599 0.4455 0.8567
vn -0.4220 0.4455 0.7896
vn -0.5680 0.4455 0.6921
vn -0.6921 0.4455 0.5680
vn -0.7896 0.4455 0.4220
vn -0.8567 0.4455 0.2599
vn -0.8910 0.4455 0.0878
vn -0.8910 0.4455 -0.0878
vn -0.8567 0.4455 -0.2599
vn -0.7896 0.4455 -0.4220
vn -0.6921 0.4455 -0.5680
vn -0.5680 0.4455 -0.6921
vn -0.4220 0.4455 -0.7896
vn -0.2599 0.4455 -0.8567
vn -0.0878 0.4455 -0.8910
vn 0.0000 -1.0000 0.0000
s off
f 1/1/1 2/2/1 3/3/1
f 3/3/2 2/2/2 4/4/2
f 4/4/3 2/2/3 5/5/3
f 5/5/4 2/2/4 6/6/4
f 6/6/5 2/2/5 7/7/5
f 7/7/6 2/2/6 8/8/6
f 8/8/7 2/2/7 9/9/7
f 9/9/8 2/2/8 10/10/8
f 10/10/9 2/2/9 11/11/9
f 11/11/10 2/2/10 12/12/10
f 12/12/11 2/2/11 13/13/11
f 13/13/12 2/2/12 14/14/12
f 14/14/13 2/2/13 15/15/13
f 15/15/14 2/2/14 16/16/14
f 16/16/15 2/2/15 17/17/15
f 17/17/16 2/2/16 18/18/16
f 18/18/17 2/2/17 19/19/17
f 19/19/18 2/2/18 20/20/18
f 20/20/19 2/2/19 21/21/19
f 21/21/20 2/2/20 22/22/20
f 22/22/21 2/2/21 23/23/21
f 23/23/22 2/2/22 24/24/22
f 24/24/23 2/2/23 25/25/23
f 25/25/24 2/2/24 26/26/24
f 26/26/25 2/2/25 27/27/25
f 27/27/26 2/2/26 28/28/26
f 28/28/27 2/2/27 29/29/27
f 29/29/28 2/2/28 30/30/28
f 30/30/29 2/2/29 31/31/29
f 31/31/30 2/2/30 32/32/30
f 32/32/31 2/2/31 33/33/31
f 33/33/32 2/2/32 1/1/32
f 17/34/33 25/35/33 9/36/33
f 33/37/33 1/38/33 3/39/33
f 3/39/33 4/40/33 5/41/33
f 5/41/33 6/42/33 7/43/33
f 7/43/33 8/44/33 5/41/33
f 9/36/33 10/45/33 11/46/33
f 11/46/33 12/47/33 9/36/33
f 13/48/33 14/49/33 17/34/33
f 15/50/33 16/51/33 17/34/33
f 17/34/33 18/52/33 19/53/33
f 19/53/33 20/54/33 21/55/33
f 21/55/33 22/56/33 23/57/33
f 23/57/33 24/58/33 25/35/33
f 25/35/33 26/59/33 27/60/33
f 27/60/33 28/61/33 29/62/33
f 29/62/33 30/63/33 33/37/33
f 31/64/33 32/65/33 33/37/33
f 33/37/33 3/39/33 9/36/33
f 5/41/33 8/44/33 9/36/33
f 9/36/33 12/47/33 13/48/33
f 14/49/33 15/50/33 17/34/33
f 17/34/33 19/53/33 25/35/33
f 21/55/33 23/57/33 25/35/33
f 25/35/33 27/60/33 33/37/33
f 30/63/33 31/64/33 33/37/33
f 3/39/33 5/41/33 9/36/33
f 9/36/33 13/48/33 17/34/33
f 19/53/33 21/55/33 25/35/33
f 27/60/33 29/62/33 33/37/33
f 33/37/33 9/36/33 25/35/33
